<?xml version="1.0" encoding="utf-8"?>
<!-- License: CC Attribution. Made by Amir Baqian: https://dribbble.com/amirbaqian -->
<svg width="800px" height="800px" viewBox="0 0 24 24" fill="none" xmlns="http://www.w3.org/2000/svg">
<path d="M18.8417 3.26636C18.7159 2.91121 18.2137 2.91121 18.0878 3.26636L17.6565 4.48356C17.6162 4.59724 17.5268 4.68667 17.4131 4.72695L16.1959 5.15825C15.8408 5.28409 15.8408 5.78633 16.1959 5.91217L17.4131 6.34347C17.5268 6.38375 17.6162 6.47318 17.6565 6.58686L18.0878 7.80406C18.2137 8.1592 18.7159 8.1592 18.8417 7.80406L19.273 6.58686C19.3133 6.47318 19.4028 6.38375 19.5164 6.34347L20.7336 5.91217C21.0888 5.78633 21.0888 5.28409 20.7336 5.15825L19.5164 4.72695C19.4028 4.68667 19.3133 4.59724 19.273 4.48356L18.8417 3.26636Z" fill="#363062"/>
<path d="M14.148 7.24033C14.235 6.995 14.5819 6.995 14.6689 7.24033L14.9066 7.9112C14.9344 7.98973 14.9962 8.05151 15.0747 8.07934L15.7456 8.31705C15.9909 8.40398 15.9909 8.75094 15.7456 8.83787L15.0747 9.07558C14.9962 9.1034 14.9344 9.16518 14.9066 9.24371L14.6689 9.91458C14.5819 10.1599 14.235 10.1599 14.148 9.91458L13.9103 9.24371C13.8825 9.16518 13.8207 9.1034 13.7422 9.07558L13.0713 8.83787C12.826 8.75094 12.826 8.40398 13.0713 8.31705L13.7422 8.07934C13.8207 8.05151 13.8825 7.98973 13.9103 7.9112L14.148 7.24033Z" fill="#363062"/>
<path d="M16.7701 10.2212C16.828 10.0577 17.0593 10.0577 17.1173 10.2212L17.2757 10.6685C17.2943 10.7208 17.3355 10.762 17.3878 10.7806L17.8351 10.9391C17.9986 10.997 17.9986 11.2283 17.8351 11.2863L17.3878 11.4447C17.3355 11.4633 17.2943 11.5045 17.2757 11.5568L17.1173 12.0041C17.0593 12.1676 16.828 12.1676 16.7701 12.0041L16.6116 11.5568C16.593 11.5045 16.5518 11.4633 16.4995 11.4447L16.0522 11.2863C15.8887 11.2283 15.8887 10.997 16.0522 10.9391L16.4995 10.7806C16.5518 10.762 16.593 10.7208 16.6116 10.6685L16.7701 10.2212Z" fill="#363062"/>
<path d="M11.1347 4.65082C11.2895 4.92163 11.2632 5.25949 11.0684 5.50312C10.2511 6.52542 9.76722 7.80518 9.76722 9.19444C9.76722 12.5078 12.5377 15.2308 16.0014 15.2308C16.9528 15.2308 17.852 15.0249 18.656 14.6579C18.9386 14.529 19.2712 14.5848 19.4962 14.7989C19.7212 15.013 19.7933 15.3425 19.6785 15.6311C18.4249 18.7812 15.2868 21 11.6297 21C6.88437 21 3 17.2564 3 12.5929C3 8.35107 6.21566 4.86876 10.3667 4.27529C10.6755 4.23114 10.9799 4.38 11.1347 4.65082Z" fill="#363062"/>
</svg>